<svg width="57" height="56" viewBox="0 0 57 56" fill="none" xmlns="http://www.w3.org/2000/svg">
<rect x="0.5" width="56" height="56" rx="28" fill="#161616"/>
<g filter="url(#filter0_d_5160_19672)">
<path d="M32.5 16.6975C29.9144 15.7676 27.0856 15.7676 24.5 16.6975" stroke="#2CC420" stroke-width="1.5" stroke-linecap="round" stroke-linejoin="round"/>
<path d="M16.709 25.8111C17.2089 23.1115 18.6214 20.6656 20.7097 18.8833" stroke="#2CC420" stroke-width="1.5" stroke-linecap="round" stroke-linejoin="round"/>
<path d="M20.7097 37.1166C18.6214 35.3342 17.209 32.8884 16.709 30.1887" stroke="#2CC420" stroke-width="1.5" stroke-linecap="round" stroke-linejoin="round"/>
<path d="M24.5 39.3026C27.0856 40.2325 29.9144 40.2325 32.5 39.3026" stroke="#2CC420" stroke-width="1.5" stroke-linecap="round" stroke-linejoin="round"/>
<path d="M40.2917 25.8111C39.7918 23.1115 38.3794 20.6656 36.291 18.8833" stroke="#2CC420" stroke-width="1.5" stroke-linecap="round" stroke-linejoin="round"/>
<path d="M36.291 37.1166C38.3793 35.3342 39.7918 32.8884 40.2917 30.1887" stroke="#2CC420" stroke-width="1.5" stroke-linecap="round" stroke-linejoin="round"/>
<path d="M25.834 27.9999H31.1673" stroke="#2CC420" stroke-width="1.5" stroke-linecap="round" stroke-linejoin="round"/>
<path d="M28.5007 30.6666V25.3333" stroke="#2CC420" stroke-width="1.5" stroke-linecap="round" stroke-linejoin="round"/>
</g>
<defs>
<filter id="filter0_d_5160_19672" x="4.5" y="4" width="48" height="48" filterUnits="userSpaceOnUse" color-interpolation-filters="sRGB">
<feFlood flood-opacity="0" result="BackgroundImageFix"/>
<feColorMatrix in="SourceAlpha" type="matrix" values="0 0 0 0 0 0 0 0 0 0 0 0 0 0 0 0 0 0 127 0" result="hardAlpha"/>
<feOffset/>
<feGaussianBlur stdDeviation="4"/>
<feColorMatrix type="matrix" values="0 0 0 0 0.172549 0 0 0 0 0.768627 0 0 0 0 0.12549 0 0 0 1 0"/>
<feBlend mode="normal" in2="BackgroundImageFix" result="effect1_dropShadow_5160_19672"/>
<feBlend mode="normal" in="SourceGraphic" in2="effect1_dropShadow_5160_19672" result="shape"/>
</filter>
</defs>
</svg>
