<svg width="49" height="48" viewBox="0 0 49 48" fill="none" xmlns="http://www.w3.org/2000/svg">
<rect x="0.5" width="48" height="48" rx="10" fill="black"/>
<path d="M36.9902 31.4138C35.4367 36.6379 33.2419 37.4623 29.009 38.7611C29.009 38.7611 37.9808 35.7696 35.7788 12.5532C32.6718 14.0635 26.8997 14.3189 26.8997 14.3189C21.5052 14.9318 19.0253 15.8219 17.1297 16.7704C15.6831 17.5 14.1582 19.003 14.1582 19.003C12.0916 20.8927 10.7875 23.6434 10.7875 26.7078C10.7875 32.4134 15.3055 36.6087 20.871 36.6087C22.4886 36.6087 23.023 36.3679 24.0136 35.9958C24.9328 35.6529 25.5528 35.2662 25.5457 33.5443L25.5671 27.3499H19.7023V25.0589L27.9044 25.037V34.6095C27.9044 35.8718 27.2203 37.0319 26.13 37.6156C24.5694 38.4473 22.8021 38.9362 20.9351 38.9945C14.1083 39.1988 8.50715 33.6537 8.50002 26.664C8.4929 22.9576 10.0749 19.6378 12.5904 17.3687C12.5904 17.3687 16.6452 12.4511 28.5529 11.8163C28.5529 11.8163 35.7075 11.5464 37.7242 9C37.7242 9 39.8834 23.7237 36.9974 31.4284" fill="#37ED2A"/>
</svg>
