<svg width="20" height="20" viewBox="0 0 20 20" fill="none" xmlns="http://www.w3.org/2000/svg">
<g id="Frame" clip-path="url(#clip0_1011_10302)">
<g id="Group">
<path id="Vector" d="M10 20C4.48598 20 0 15.514 0 10C0 4.48598 4.48598 0 10 0C15.514 0 20 4.48598 20 10C20 15.514 15.514 20 10 20Z" fill="#FFF16B"/>
<path id="Vector_2" d="M20 10C20 4.48598 15.514 0 10 0V20C15.514 20 20 15.514 20 10Z" fill="#FFD400"/>
<path id="Vector_3" d="M10 17.6172C5.79988 17.6172 2.38281 14.2001 2.38281 10C2.38281 5.79988 5.79988 2.38281 10 2.38281C14.2001 2.38281 17.6172 5.79988 17.6172 10C17.6172 14.2001 14.2001 17.6172 10 17.6172Z" fill="#FFD400"/>
<path id="Vector_4" d="M17.6172 10C17.6172 5.79988 14.2001 2.38281 10 2.38281V17.6172C14.2001 17.6172 17.6172 14.2001 17.6172 10Z" fill="#FF9F00"/>
<path id="Vector_5" d="M11.7238 8.87346L10.4572 7.29021C10.2226 6.99701 9.77665 6.99701 9.54208 7.29021L8.27547 8.87346L6.3554 7.91342C5.9193 7.69537 5.42317 8.07428 5.51879 8.5524L6.30004 12.4587C6.32662 12.5915 6.39839 12.711 6.50314 12.7969C6.60789 12.8827 6.73916 12.9297 6.87461 12.9297H13.1246C13.4039 12.9297 13.6444 12.7325 13.6992 12.4587L14.4804 8.5524C14.5761 8.07428 14.08 7.69537 13.6438 7.91342L11.7238 8.87346Z" fill="#FFF16B"/>
<path id="Vector_6" d="M13.125 12.9297C13.4043 12.9297 13.6448 12.7325 13.6996 12.4587L14.4808 8.55242C14.5764 8.0743 14.0804 7.69539 13.6442 7.91344L11.7241 8.87348L10.4575 7.29023C10.3403 7.14363 10.1701 7.07031 10 7.07031V12.9297H13.125Z" fill="#FFD400"/>
</g>
</g>
<defs>
<clipPath id="clip0_1011_10302">
<rect width="20" height="20" fill="white"/>
</clipPath>
</defs>
</svg>
