<svg width="33" height="32" viewBox="0 0 33 32" fill="none" xmlns="http://www.w3.org/2000/svg">
<g id="Group">
<g id="Group_2">
<path id="Vector" d="M28.4728 12.698C29.5262 13.7514 29.5262 15.4592 28.4728 16.5126C27.4194 17.566 25.7116 17.566 24.6582 16.5126C23.6048 15.4592 23.6048 13.7514 24.6582 12.698C25.7116 11.6446 27.4194 11.6446 28.4728 12.698" stroke="#565656" stroke-width="1.5" stroke-linecap="round" stroke-linejoin="round"/>
<path id="Vector_2" d="M19.6869 7.88311C21.3088 9.50508 21.3088 12.1348 19.6869 13.7568C18.0649 15.3788 15.4351 15.3788 13.8132 13.7568C12.1912 12.1348 12.1912 9.50509 13.8132 7.88311C15.4351 6.26113 18.0649 6.26113 19.6869 7.88311" stroke="#565656" stroke-width="1.5" stroke-linecap="round" stroke-linejoin="round"/>
<path id="Vector_3" d="M8.84096 12.698C9.89433 13.7514 9.89433 15.4592 8.84096 16.5126C7.78758 17.566 6.07973 17.566 5.02636 16.5126C3.97298 15.4592 3.97298 13.7514 5.02636 12.698C6.07973 11.6446 7.78759 11.6446 8.84096 12.698" stroke="#565656" stroke-width="1.5" stroke-linecap="round" stroke-linejoin="round"/>
<path id="Vector_4" d="M31.416 25.3332V23.8719C31.416 22.0306 29.924 20.5386 28.0826 20.5386H27.0146" stroke="#565656" stroke-width="1.5" stroke-linecap="round" stroke-linejoin="round"/>
<path id="Vector_5" d="M2.08301 25.3332V23.8719C2.08301 22.0306 3.57501 20.5386 5.41634 20.5386H6.48434" stroke="#565656" stroke-width="1.5" stroke-linecap="round" stroke-linejoin="round"/>
<path id="Vector_6" d="M23.8685 25.3333V23.1987C23.8685 20.6213 21.7792 18.532 19.2019 18.532H14.2965C11.7192 18.532 9.62988 20.6213 9.62988 23.1987V25.3333" stroke="#565656" stroke-width="1.5" stroke-linecap="round" stroke-linejoin="round"/>
</g>
</g>
</svg>
