<svg width="49" height="48" viewBox="0 0 49 48" fill="none" xmlns="http://www.w3.org/2000/svg">
<path d="M37.25 0H11.75C5.5368 0 0.5 5.0368 0.5 11.25V36.75C0.5 42.9632 5.5368 48 11.75 48H37.25C43.4632 48 48.5 42.9632 48.5 36.75V11.25C48.5 5.0368 43.4632 0 37.25 0Z" fill="url(#paint0_radial_5286_24511)"/>
<path d="M37.25 0H11.75C5.5368 0 0.5 5.0368 0.5 11.25V36.75C0.5 42.9632 5.5368 48 11.75 48H37.25C43.4632 48 48.5 42.9632 48.5 36.75V11.25C48.5 5.0368 43.4632 0 37.25 0Z" fill="url(#paint1_radial_5286_24511)"/>
<path d="M24.5017 5.25C19.4096 5.25 18.7704 5.27231 16.7705 5.36325C14.7744 5.45475 13.4118 5.77069 12.2197 6.23438C10.9863 6.71325 9.94025 7.35394 8.89813 8.39644C7.85506 9.43875 7.21438 10.4848 6.734 11.7176C6.269 12.9101 5.95269 14.2732 5.86287 16.2684C5.77344 18.2685 5.75 18.9079 5.75 24.0002C5.75 29.0925 5.7725 29.7296 5.86325 31.7295C5.95513 33.7256 6.27106 35.0882 6.73438 36.2803C7.21362 37.5137 7.85431 38.5597 8.89681 39.6019C9.93875 40.6449 10.9848 41.2871 12.2172 41.766C13.4103 42.2297 14.7731 42.5456 16.7688 42.6371C18.7689 42.7281 19.4075 42.7504 24.4994 42.7504C29.5921 42.7504 30.2292 42.7281 32.2291 42.6371C34.2253 42.5456 35.5893 42.2297 36.7824 41.766C38.0152 41.2871 39.0597 40.6449 40.1015 39.6019C41.1446 38.5597 41.7851 37.5137 42.2656 36.2809C42.7265 35.0882 43.043 33.7253 43.1367 31.7299C43.2266 29.73 43.25 29.0925 43.25 24.0002C43.25 18.9079 43.2266 18.2689 43.1367 16.2688C43.043 14.2727 42.7265 12.9103 42.2656 11.7182C41.7851 10.4848 41.1446 9.43875 40.1015 8.39644C39.0586 7.35356 38.0156 6.71287 36.7812 6.23456C35.5859 5.77069 34.2226 5.45456 32.2265 5.36325C30.2264 5.27231 29.5897 5.25 24.4959 5.25H24.5017ZM22.8196 8.62894C23.3189 8.62819 23.876 8.62894 24.5017 8.62894C29.5081 8.62894 30.1014 8.64694 32.0784 8.73675C33.9065 8.82038 34.8988 9.12581 35.5597 9.3825C36.4347 9.72225 37.0586 10.1286 37.7144 10.785C38.3707 11.4412 38.7768 12.0662 39.1175 12.9412C39.3742 13.6012 39.68 14.5935 39.7633 16.4216C39.8531 18.3983 39.8726 18.9919 39.8726 23.9959C39.8726 28.9999 39.8531 29.5937 39.7633 31.5701C39.6796 33.3982 39.3742 34.3905 39.1175 35.0507C38.7778 35.9257 38.3707 36.5488 37.7144 37.2047C37.0582 37.8609 36.4351 38.2671 35.5597 38.607C34.8995 38.8648 33.9065 39.1695 32.0784 39.2531C30.1017 39.3429 29.5081 39.3624 24.5017 39.3624C19.4951 39.3624 18.9016 39.3429 16.9252 39.2531C15.0971 39.1688 14.1048 38.8633 13.4433 38.6066C12.5684 38.2667 11.9433 37.8606 11.2871 37.2043C10.6308 36.5481 10.2247 35.9246 9.884 35.0492C9.62731 34.389 9.3215 33.3967 9.23825 31.5686C9.14844 29.592 9.13044 28.9984 9.13044 23.9912C9.13044 18.984 9.14844 18.3936 9.23825 16.4169C9.32188 14.5888 9.62731 13.5966 9.884 12.9356C10.2239 12.0606 10.6308 11.4356 11.2873 10.7794C11.9437 10.1231 12.5684 9.71681 13.4435 9.37631C14.1044 9.1185 15.0971 8.81381 16.9252 8.72981C18.6549 8.65162 19.3252 8.62819 22.8196 8.62425V8.62894ZM34.5104 11.7422C33.2683 11.7422 32.2604 12.7491 32.2604 13.9914C32.2604 15.2336 33.2683 16.2414 34.5104 16.2414C35.7526 16.2414 36.7604 15.2336 36.7604 13.9914C36.7604 12.7493 35.7526 11.7414 34.5104 11.7414V11.7422ZM24.5017 14.3711C19.1842 14.3711 14.8728 18.6825 14.8728 24.0002C14.8728 29.3179 19.1842 33.6272 24.5017 33.6272C29.8194 33.6272 34.1292 29.3179 34.1292 24.0002C34.1292 18.6827 29.819 14.3711 24.5013 14.3711H24.5017ZM24.5017 17.7501C27.9534 17.7501 30.7518 20.5481 30.7518 24.0002C30.7518 27.4519 27.9534 30.2503 24.5017 30.2503C21.05 30.2503 18.2518 27.4519 18.2518 24.0002C18.2518 20.5481 21.0498 17.7501 24.5017 17.7501Z" fill="white"/>
<defs>
<radialGradient id="paint0_radial_5286_24511" cx="0" cy="0" r="1" gradientUnits="userSpaceOnUse" gradientTransform="translate(13.25 51.6969) rotate(-90) scale(47.5716 44.2453)">
<stop stop-color="#FFDD55"/>
<stop offset="0.1" stop-color="#FFDD55"/>
<stop offset="0.5" stop-color="#FF543E"/>
<stop offset="1" stop-color="#C837AB"/>
</radialGradient>
<radialGradient id="paint1_radial_5286_24511" cx="0" cy="0" r="1" gradientUnits="userSpaceOnUse" gradientTransform="translate(-7.54019 3.45769) rotate(78.681) scale(21.2648 87.654)">
<stop stop-color="#3771C8"/>
<stop offset="0.128" stop-color="#3771C8"/>
<stop offset="1" stop-color="#6600FF" stop-opacity="0"/>
</radialGradient>
</defs>
</svg>
