<svg xmlns="http://www.w3.org/2000/svg" width="107" height="16" viewBox="0 0 107 16" fill="none">
<path d="M5.1083 9.69902C4.17815 9.69902 3.32302 9.51149 2.5429 9.13643C1.76278 8.76137 1.14018 8.21378 0.675105 7.49367C0.225035 6.77356 0 5.90342 0 4.88326C0 3.87811 0.225035 3.01547 0.675105 2.29536C1.12518 1.56024 1.73277 0.997655 2.49789 0.607594C3.27801 0.202531 4.14815 0 5.1083 0C5.39334 0 5.66338 0.0225032 5.91842 0.0675097C6.17346 0.0975149 6.421 0.150023 6.66104 0.225035H11.5668V2.25035C10.8917 2.25035 10.2091 2.13783 9.51899 1.9128C8.84388 1.68776 8.25129 1.44773 7.74121 1.19269L7.6737 1.08017C8.18378 1.35021 8.62635 1.68026 9.00141 2.07032C9.37646 2.44538 9.66151 2.87295 9.85654 3.35302C10.0666 3.8181 10.1716 4.34318 10.1716 4.92827C10.1716 5.91842 9.94655 6.77356 9.49648 7.49367C9.06142 8.21378 8.45382 8.76137 7.6737 9.13643C6.90858 9.51149 6.05345 9.69902 5.1083 9.69902ZM8.55134 16V15.4824C8.55134 14.7173 8.3413 14.1697 7.92124 13.8397C7.50117 13.5096 6.88608 13.3446 6.07595 13.3446H3.44304C2.88795 13.3446 2.41538 13.2996 2.02532 13.2096C1.63526 13.1196 1.31271 12.9845 1.05767 12.8045C0.802625 12.6395 0.615096 12.4294 0.495077 12.1744C0.375059 11.9344 0.315049 11.6643 0.315049 11.3643C0.315049 10.7792 0.495077 10.3366 0.855134 10.0366C1.21519 9.73652 1.67276 9.54899 2.22785 9.47398C2.78293 9.38397 3.34552 9.37646 3.91561 9.45148L5.1083 9.69902C4.25316 9.74402 3.60056 9.82654 3.15049 9.94655C2.70042 10.0666 2.47539 10.3216 2.47539 10.7117C2.47539 10.9367 2.5654 11.1167 2.74543 11.2518C2.92546 11.3868 3.1805 11.4543 3.51055 11.4543H6.25598C7.11111 11.4543 7.86873 11.5593 8.52883 11.7693C9.20394 11.9944 9.72902 12.3619 10.1041 12.872C10.4941 13.3971 10.6892 14.1097 10.6892 15.0098V16H8.55134ZM5.1083 7.87623C5.64838 7.87623 6.13596 7.76371 6.57103 7.53868C7.0211 7.29864 7.38115 6.96109 7.6512 6.52602C7.92124 6.07595 8.05626 5.53586 8.05626 4.90577C8.05626 4.26067 7.92124 3.71308 7.6512 3.26301C7.39616 2.79794 7.0436 2.45288 6.59353 2.22785C6.14346 1.98781 5.64838 1.86779 5.1083 1.86779C4.56821 1.86779 4.06564 1.98781 3.60056 2.22785C3.15049 2.45288 2.79044 2.79044 2.52039 3.24051C2.25035 3.69058 2.11533 4.24566 2.11533 4.90577C2.11533 5.53586 2.25035 6.07595 2.52039 6.52602C2.79044 6.96109 3.15049 7.29864 3.60056 7.53868C4.05063 7.76371 4.55321 7.87623 5.1083 7.87623Z" fill="white"/>
<path d="M13.6169 0.225035H15.7773V11.4543H13.6169V0.225035ZM19.5803 2.13783C18.8002 2.13783 18.1326 2.31786 17.5775 2.67792C17.0374 3.03797 16.6024 3.48054 16.2723 4.00563C15.9573 4.53071 15.7472 5.03329 15.6422 5.51336L15.6197 4.23066C15.6347 4.08064 15.6722 3.8481 15.7322 3.53305C15.8073 3.203 15.9348 2.83544 16.1148 2.43038C16.2948 2.02532 16.5349 1.64276 16.8349 1.2827C17.135 0.907641 17.51 0.600093 17.9601 0.360056C18.4102 0.120019 18.9502 0 19.5803 0V2.13783Z" fill="white"/>
<path d="M26.9517 11.7018C25.8565 11.7018 24.8513 11.4693 23.9362 11.0042C23.021 10.5391 22.2934 9.87154 21.7533 9.00141C21.2133 8.13127 20.9432 7.08861 20.9432 5.87342C20.9432 4.64323 21.2133 3.59306 21.7533 2.72293C22.2934 1.83779 23.021 1.16268 23.9362 0.697609C24.8513 0.232536 25.8565 0 26.9517 0C28.0468 0 29.0445 0.232536 29.9446 0.697609C30.8448 1.16268 31.5649 1.83779 32.105 2.72293C32.645 3.59306 32.9151 4.64323 32.9151 5.87342C32.9151 7.08861 32.645 8.13127 32.105 9.00141C31.5649 9.87154 30.8448 10.5391 29.9446 11.0042C29.0445 11.4693 28.0468 11.7018 26.9517 11.7018ZM26.9517 9.83404C27.6268 9.83404 28.2494 9.68401 28.8194 9.38397C29.4045 9.06892 29.8696 8.61885 30.2147 8.03376C30.5747 7.43366 30.7547 6.71355 30.7547 5.87342C30.7547 5.01828 30.5747 4.29067 30.2147 3.69058C29.8696 3.09048 29.4045 2.63291 28.8194 2.31786C28.2494 2.00281 27.6268 1.84529 26.9517 1.84529C26.2765 1.84529 25.6464 2.00281 25.0614 2.31786C24.4763 2.61791 24.0037 3.06798 23.6436 3.66807C23.2836 4.26817 23.1036 5.00328 23.1036 5.87342C23.1036 6.71355 23.2761 7.43366 23.6211 8.03376C23.9812 8.61885 24.4538 9.06892 25.0389 9.38397C25.6239 9.68401 26.2615 9.83404 26.9517 9.83404Z" fill="white"/>
<path d="M47.1113 9.69902L46.5262 9.67651L49.4742 0.225035H51.8145L47.9214 11.4543H45.8961L42.4981 1.84529H43.1057L39.6626 11.4543H37.6373L33.7892 0.225035H36.1521L39.01 9.67651L38.4249 9.69902L41.5304 0.225035H44.0733L47.1113 9.69902Z" fill="white"/>
</svg>