<svg width="108" height="17" viewBox="0 0 108 17" fill="none" xmlns="http://www.w3.org/2000/svg">
<g id="logo">
<g id="grow.zone">
<path d="M5.1083 10.199C4.17815 10.199 3.32302 10.0115 2.5429 9.63643C1.76278 9.26137 1.14018 8.71378 0.675105 7.99367C0.225035 7.27356 0 6.40342 0 5.38326C0 4.37811 0.225035 3.51547 0.675105 2.79536C1.12518 2.06024 1.73277 1.49766 2.49789 1.10759C3.27801 0.702531 4.14815 0.5 5.1083 0.5C5.39334 0.5 5.66338 0.522503 5.91842 0.56751C6.17346 0.597515 6.421 0.650023 6.66104 0.725035H11.5668V2.75035C10.8917 2.75035 10.2091 2.63783 9.51899 2.4128C8.84388 2.18776 8.25129 1.94773 7.74121 1.69269L7.6737 1.58017C8.18378 1.85021 8.62635 2.18026 9.00141 2.57032C9.37646 2.94538 9.66151 3.37295 9.85654 3.85302C10.0666 4.3181 10.1716 4.84318 10.1716 5.42827C10.1716 6.41843 9.94655 7.27356 9.49648 7.99367C9.06142 8.71378 8.45382 9.26137 7.6737 9.63643C6.90858 10.0115 6.05345 10.199 5.1083 10.199ZM8.55134 16.5V15.9824C8.55134 15.2173 8.3413 14.6697 7.92124 14.3397C7.50117 14.0096 6.88608 13.8446 6.07595 13.8446H3.44304C2.88795 13.8446 2.41538 13.7996 2.02532 13.7096C1.63526 13.6196 1.31271 13.4845 1.05767 13.3045C0.802625 13.1395 0.615096 12.9294 0.495077 12.6744C0.375059 12.4344 0.315049 12.1643 0.315049 11.8643C0.315049 11.2792 0.495077 10.8366 0.855134 10.5366C1.21519 10.2365 1.67276 10.049 2.22785 9.97398C2.78293 9.88397 3.34552 9.87647 3.91561 9.95148L5.1083 10.199C4.25316 10.244 3.60056 10.3265 3.15049 10.4466C2.70042 10.5666 2.47539 10.8216 2.47539 11.2117C2.47539 11.4367 2.5654 11.6167 2.74543 11.7518C2.92546 11.8868 3.1805 11.9543 3.51055 11.9543H6.25598C7.11111 11.9543 7.86873 12.0593 8.52883 12.2693C9.20394 12.4944 9.72902 12.8619 10.1041 13.372C10.4941 13.8971 10.6892 14.6097 10.6892 15.5098V16.5H8.55134ZM5.1083 8.37623C5.64838 8.37623 6.13596 8.26371 6.57103 8.03868C7.0211 7.79864 7.38115 7.46109 7.6512 7.02602C7.92124 6.57595 8.05626 6.03586 8.05626 5.40577C8.05626 4.76067 7.92124 4.21308 7.6512 3.76301C7.39616 3.29794 7.0436 2.95288 6.59353 2.72785C6.14346 2.48781 5.64838 2.36779 5.1083 2.36779C4.56821 2.36779 4.06564 2.48781 3.60056 2.72785C3.15049 2.95288 2.79044 3.29044 2.52039 3.74051C2.25035 4.19058 2.11533 4.74566 2.11533 5.40577C2.11533 6.03586 2.25035 6.57595 2.52039 7.02602C2.79044 7.46109 3.15049 7.79864 3.60056 8.03868C4.05063 8.26371 4.55321 8.37623 5.1083 8.37623Z" fill="url(#paint0_linear_1011_10298)"/>
<path d="M13.6169 0.725035H15.7773V11.9543H13.6169V0.725035ZM19.5803 2.63783C18.8002 2.63783 18.1326 2.81786 17.5775 3.17792C17.0374 3.53797 16.6024 3.98054 16.2723 4.50563C15.9573 5.03071 15.7472 5.53329 15.6422 6.01336L15.6197 4.73066C15.6347 4.58064 15.6722 4.3481 15.7322 4.03305C15.8073 3.703 15.9348 3.33544 16.1148 2.93038C16.2948 2.52532 16.5349 2.14276 16.8349 1.7827C17.135 1.40764 17.51 1.10009 17.9601 0.860056C18.4102 0.620019 18.9502 0.5 19.5803 0.5V2.63783Z" fill="url(#paint1_linear_1011_10298)"/>
<path d="M26.9517 12.2018C25.8565 12.2018 24.8513 11.9693 23.9362 11.5042C23.021 11.0391 22.2934 10.3715 21.7533 9.50141C21.2133 8.63127 20.9432 7.58861 20.9432 6.37342C20.9432 5.14323 21.2133 4.09306 21.7533 3.22293C22.2934 2.33779 23.021 1.66268 23.9362 1.19761C24.8513 0.732536 25.8565 0.5 26.9517 0.5C28.0468 0.5 29.0445 0.732536 29.9446 1.19761C30.8448 1.66268 31.5649 2.33779 32.105 3.22293C32.645 4.09306 32.9151 5.14323 32.9151 6.37342C32.9151 7.58861 32.645 8.63127 32.105 9.50141C31.5649 10.3715 30.8448 11.0391 29.9446 11.5042C29.0445 11.9693 28.0468 12.2018 26.9517 12.2018ZM26.9517 10.334C27.6268 10.334 28.2494 10.184 28.8194 9.88397C29.4045 9.56892 29.8696 9.11885 30.2147 8.53376C30.5747 7.93366 30.7547 7.21355 30.7547 6.37342C30.7547 5.51828 30.5747 4.79067 30.2147 4.19058C29.8696 3.59048 29.4045 3.13291 28.8194 2.81786C28.2494 2.50281 27.6268 2.34529 26.9517 2.34529C26.2765 2.34529 25.6465 2.50281 25.0614 2.81786C24.4763 3.11791 24.0037 3.56798 23.6436 4.16807C23.2836 4.76817 23.1036 5.50328 23.1036 6.37342C23.1036 7.21355 23.2761 7.93366 23.6211 8.53376C23.9812 9.11885 24.4538 9.56892 25.0389 9.88397C25.6239 10.184 26.2615 10.334 26.9517 10.334Z" fill="url(#paint2_linear_1011_10298)"/>
<path d="M47.1113 10.199L46.5262 10.1765L49.4742 0.725035H51.8145L47.9214 11.9543H45.8961L42.4981 2.34529H43.1057L39.6626 11.9543H37.6373L33.7892 0.725035H36.1521L39.01 10.1765L38.4249 10.199L41.5304 0.725035H44.0733L47.1113 10.199Z" fill="url(#paint3_linear_1011_10298)"/>
</g>
</g>
<defs>
<linearGradient id="paint0_linear_1011_10298" x1="0" y1="8.5" x2="107.087" y2="8.5" gradientUnits="userSpaceOnUse">
<stop stop-color="#2CC420"/>
<stop offset="1" stop-color="#2CC420" stop-opacity="0"/>
</linearGradient>
<linearGradient id="paint1_linear_1011_10298" x1="0" y1="8.5" x2="107.087" y2="8.5" gradientUnits="userSpaceOnUse">
<stop stop-color="#2CC420"/>
<stop offset="1" stop-color="#2CC420" stop-opacity="0"/>
</linearGradient>
<linearGradient id="paint2_linear_1011_10298" x1="0" y1="8.5" x2="107.087" y2="8.5" gradientUnits="userSpaceOnUse">
<stop stop-color="#2CC420"/>
<stop offset="1" stop-color="#2CC420" stop-opacity="0"/>
</linearGradient>
<linearGradient id="paint3_linear_1011_10298" x1="0" y1="8.5" x2="107.087" y2="8.5" gradientUnits="userSpaceOnUse">
<stop stop-color="#2CC420"/>
<stop offset="1" stop-color="#2CC420" stop-opacity="0"/>
</linearGradient>
<linearGradient id="paint4_linear_1011_10298" x1="0" y1="8.5" x2="107.087" y2="8.5" gradientUnits="userSpaceOnUse">
<stop stop-color="#2CC420"/>
<stop offset="1" stop-color="#2CC420" stop-opacity="0"/>
</linearGradient>
</defs>
</svg>
