<svg width="26" height="21" viewBox="0 0 26 21" fill="none" xmlns="http://www.w3.org/2000/svg">
<path d="M16.6516 20.3752C15.9908 20.3502 15.3433 20.1943 14.7526 19.9178C14.1618 19.6413 13.6413 19.2506 13.2259 18.7719C12.8025 19.2471 12.2773 19.6351 11.6838 19.9111C11.0903 20.1872 10.4415 20.3452 9.77873 20.3752C9.69316 20.3818 9.60714 20.3692 9.52788 20.3385C9.44862 20.3078 9.37844 20.2598 9.32321 20.1987C9.26799 20.1375 9.22933 20.0649 9.2105 19.987C9.19166 19.9091 9.19318 19.8281 9.21494 19.7508C9.30816 19.4213 9.43771 19.1016 9.60154 18.7968C8.47662 19.1778 7.27628 19.3273 6.08326 19.235C4.89024 19.1427 3.73292 18.8109 2.69108 18.2624C2.61047 18.2203 2.54291 18.1596 2.49493 18.0861C2.44696 18.0126 2.42019 17.9288 2.41724 17.8428C2.41406 17.7572 2.43462 17.6723 2.47694 17.5962C2.51925 17.5201 2.5819 17.4554 2.65886 17.4083C3.97424 16.5889 5.47233 16.0578 7.04032 15.8549C4.15287 14.5169 1.86959 12.269 0.596998 9.51159C0.557762 9.43133 0.542062 9.34284 0.551493 9.25512C0.560924 9.16739 0.595149 9.08355 0.650692 9.01211C0.705721 8.94116 0.77982 8.8849 0.865572 8.84896C0.951323 8.81302 1.04572 8.79866 1.13931 8.80732C4.51041 9.03473 7.67276 10.4113 10.0204 12.6733C9.08607 8.85228 10.0204 4.72661 12.7695 0.346202C12.8177 0.27257 12.8855 0.211792 12.9665 0.16978C13.0474 0.127768 13.1386 0.105952 13.2313 0.106454C13.325 0.10698 13.4169 0.130308 13.4979 0.17412C13.5789 0.217932 13.6462 0.280702 13.693 0.356192C16.4315 4.7366 17.3389 8.84728 16.3778 12.6783C18.7394 10.4117 21.9169 9.03519 25.3018 8.81232C25.3953 8.80448 25.4895 8.81961 25.5748 8.8562C25.6601 8.89279 25.7336 8.94955 25.7879 9.02083C25.8423 9.09211 25.8756 9.17541 25.8845 9.2624C25.8934 9.34939 25.8776 9.43704 25.8387 9.51658C24.5511 12.2636 22.2719 14.5056 19.3954 15.8549C20.9559 16.0607 22.4463 16.5917 23.7554 17.4083C23.8324 17.4557 23.895 17.5209 23.9371 17.5974C23.9791 17.674 23.9992 17.7593 23.9955 17.8452C23.9917 17.9311 23.9641 18.0146 23.9155 18.0877C23.8668 18.1608 23.7987 18.221 23.7178 18.2624C22.6744 18.8122 21.515 19.1443 20.3198 19.2358C19.1247 19.3272 17.9225 19.1757 16.7966 18.7918C16.96 19.0973 17.0913 19.4168 17.1885 19.7458C17.2104 19.8213 17.213 19.9005 17.196 19.977C17.179 20.0535 17.143 20.1253 17.0907 20.1865C17.0385 20.2477 16.9716 20.2967 16.8953 20.3295C16.819 20.3622 16.7356 20.3779 16.6516 20.3752ZM13.2259 17.3284C13.3262 17.3296 13.4241 17.3569 13.5086 17.4072C13.593 17.4575 13.6607 17.5288 13.7038 17.6131C13.9096 18.0151 14.2092 18.3694 14.5808 18.6502C14.9523 18.931 15.3864 19.1312 15.8516 19.2364C15.5758 18.7118 15.1778 18.2511 14.6864 17.8878C14.5815 17.8091 14.5122 17.6966 14.4923 17.5726C14.4724 17.4487 14.5033 17.3222 14.579 17.2185C14.6589 17.1161 14.7777 17.0457 14.9112 17.0216C15.0448 16.9975 15.1832 17.0215 15.2985 17.0886C17.8275 18.4023 20.131 18.637 22.3486 17.8029C20.4456 16.8381 18.2336 16.5403 16.1147 16.9638C15.9723 16.9929 15.8232 16.9682 15.7004 16.8952C15.5775 16.8221 15.4909 16.7066 15.4596 16.5742C15.4283 16.4417 15.4548 16.3031 15.5333 16.1888C15.6119 16.0745 15.736 15.994 15.8784 15.9648C17.6978 15.6098 19.4098 14.8836 20.8908 13.8384C22.3718 12.7933 23.5849 11.4553 24.4427 9.92116C20.2545 10.5355 17.1563 12.5734 14.9924 16.1346C14.9225 16.2484 14.8074 16.3321 14.6718 16.3676C14.5362 16.4031 14.391 16.3876 14.2676 16.3244C14.1434 16.2611 14.0512 16.1547 14.011 16.0284C13.9708 15.9021 13.9858 15.7662 14.0528 15.6501C16.4637 11.4645 16.2006 6.74449 13.2259 1.62486C10.2351 6.73949 9.94518 11.4545 12.3561 15.6501C12.4273 15.7667 12.4458 15.9048 12.4075 16.0341C12.3692 16.1634 12.2773 16.2732 12.152 16.3394C12.0267 16.4057 11.8782 16.4229 11.7393 16.3873C11.6003 16.3517 11.4822 16.2662 11.411 16.1496C10.481 14.4957 9.14414 13.0696 7.50941 11.9872C5.87469 10.9049 3.98828 10.197 2.00379 9.92116C2.86303 11.4558 4.07553 12.7954 5.55491 13.8443C7.03429 14.8933 8.74414 15.6258 10.5627 15.9898C10.7051 16.0183 10.8295 16.0982 10.9085 16.212C10.9876 16.3258 11.0148 16.4642 10.9842 16.5967C10.9535 16.7291 10.8676 16.8448 10.7453 16.9184C10.6229 16.9919 10.4742 17.0172 10.3318 16.9887C8.20552 16.5565 5.98323 16.8453 4.06565 17.8029C6.27249 18.612 8.59745 18.3773 11.1211 17.0886C11.238 17.0284 11.3749 17.0108 11.505 17.0395C11.6351 17.0681 11.749 17.1408 11.8245 17.2435C11.9001 17.3472 11.9311 17.4736 11.9112 17.5976C11.8913 17.7216 11.822 17.8341 11.7171 17.9128C11.2273 18.2763 10.831 18.737 10.5573 19.2614C11.0311 19.1471 11.4725 18.9382 11.8509 18.6493C12.2292 18.3603 12.5353 17.9982 12.748 17.5881C12.7948 17.5085 12.864 17.4423 12.9482 17.3966C13.0324 17.3508 13.1284 17.3272 13.2259 17.3284Z" fill="#565656"/>
</svg>
