<svg width="24" height="24" viewBox="0 0 24 24" fill="none" xmlns="http://www.w3.org/2000/svg">
<path fill-rule="evenodd" clip-rule="evenodd" d="M16.3661 5.63335V10.3053H20.3527C20.5895 10.2999 20.8096 10.4268 20.9234 10.6345C21.0372 10.8422 21.0259 11.096 20.894 11.2927L15.8259 18.7188C15.6661 18.9524 15.3738 19.0564 15.1024 18.9761C14.831 18.8958 14.6423 18.6496 14.6354 18.3667V13.6917H10.6507C10.4139 13.6971 10.1939 13.5702 10.08 13.3625C9.96619 13.1548 9.97754 12.901 10.1095 12.7043L15.1756 5.2812C15.3354 5.04755 15.6276 4.94362 15.899 5.02391C16.1704 5.1042 16.3591 5.35038 16.3661 5.63335V5.63335Z" stroke="#2CC420" stroke-width="1.5" stroke-linecap="round" stroke-linejoin="round"/>
<path d="M8.99926 18.0025H3.74707" stroke="#2CC420" stroke-width="1.5" stroke-linecap="round" stroke-linejoin="round"/>
<path d="M6.37292 12.5002H1.99609" stroke="#2CC420" stroke-width="1.5" stroke-linecap="round" stroke-linejoin="round"/>
<path d="M8.99926 6.99789H3.74707" stroke="#2CC420" stroke-width="1.5" stroke-linecap="round" stroke-linejoin="round"/>
</svg>
