<svg width="24" height="24" viewBox="0 0 24 24" fill="none" xmlns="http://www.w3.org/2000/svg">
<g id="Group">
<g id="Group_2">
<path id="Vector" fill-rule="evenodd" clip-rule="evenodd" d="M20 20V5.778C20 4.796 19.204 4 18.222 4H5.778C4.796 4 4 4.796 4 5.778V16.445C4 17.427 4.796 18.223 5.778 18.223H16.667L20 20Z" stroke="#2CC420" stroke-width="1.3333" stroke-linecap="round" stroke-linejoin="round"/>
<path id="Vector_2" d="M11.998 14.791C11.902 14.791 11.824 14.869 11.825 14.965C11.825 15.061 11.903 15.139 11.999 15.139C12.095 15.139 12.173 15.061 12.173 14.965C12.174 14.869 12.096 14.791 11.998 14.791" stroke="#2CC420" stroke-width="1.5" stroke-linecap="round" stroke-linejoin="round"/>
<path id="Vector_3" d="M11.9992 12.076V11.836C11.9992 11.049 12.4852 10.623 12.9732 10.296C13.4492 9.97596 13.9262 9.55796 13.9262 8.78696C13.9262 7.72296 13.0642 6.86096 12.0002 6.86096C10.9362 6.86096 10.0732 7.72096 10.0732 8.78496" stroke="#2CC420" stroke-width="1.5" stroke-linecap="round" stroke-linejoin="round"/>
</g>
</g>
</svg>
