<svg width="15" height="13" viewBox="0 0 15 13" fill="none" xmlns="http://www.w3.org/2000/svg">
<path fill-rule="evenodd" clip-rule="evenodd" d="M12.2459 2.49996V10.5C12.2459 11.2366 11.6492 11.8333 10.9126 11.8333H4.08724C3.35057 11.8333 2.75391 11.2366 2.75391 10.5V2.49996C2.75391 1.76329 3.35057 1.16663 4.08724 1.16663H10.9132C11.6492 1.16663 12.2459 1.76329 12.2459 2.49996Z" stroke="#2CC420" stroke-width="1.0664" stroke-linecap="round" stroke-linejoin="round"/>
<path d="M12.2456 2.5H13.3136C13.8656 2.5 14.3136 2.948 14.3136 3.5V9.5C14.3136 10.052 13.8656 10.5 13.3136 10.5H12.2456" stroke="#2CC420" stroke-width="0.979" stroke-linecap="round" stroke-linejoin="round"/>
<path d="M2.75373 10.5H1.68506C1.13306 10.5 0.685059 10.052 0.685059 9.5V3.5C0.685059 2.948 1.13306 2.5 1.68506 2.5H2.75306" stroke="#2CC420" stroke-width="0.979" stroke-linecap="round" stroke-linejoin="round"/>
<path fill-rule="evenodd" clip-rule="evenodd" d="M7.10259 5.05733L8.94992 6.15C9.21592 6.30733 9.21592 6.69267 8.94992 6.85L7.10259 7.94267C6.83126 8.10333 6.48926 7.90733 6.48926 7.59267V5.40733C6.48926 5.092 6.83192 4.89667 7.10259 5.05733V5.05733Z" stroke="#2CC420" stroke-linecap="round" stroke-linejoin="round"/>
</svg>
