<svg width="24" height="24" viewBox="0 0 24 24" fill="none" xmlns="http://www.w3.org/2000/svg">
<g id="Group">
<g id="Group_2">
<path id="Vector" fill-rule="evenodd" clip-rule="evenodd" d="M19.1189 6V18C19.1189 19.105 18.2239 20 17.1189 20H6.88086C5.77586 20 4.88086 19.105 4.88086 18V6C4.88086 4.895 5.77586 4 6.88086 4H17.1199C18.2239 4 19.1189 4.895 19.1189 6Z" stroke="#2CC420" stroke-width="1.5996" stroke-linecap="round" stroke-linejoin="round"/>
<path id="Vector_2" d="M19.1191 6H20.7211C21.5491 6 22.2211 6.672 22.2211 7.5V16.5C22.2211 17.328 21.5491 18 20.7211 18H19.1191" stroke="#2CC420" stroke-width="1.4685" stroke-linecap="round" stroke-linejoin="round"/>
<path id="Vector_3" d="M4.88132 18H3.27832C2.45032 18 1.77832 17.328 1.77832 16.5V7.5C1.77832 6.672 2.45032 6 3.27832 6H4.88032" stroke="#2CC420" stroke-width="1.4685" stroke-linecap="round" stroke-linejoin="round"/>
<path id="Vector_4" fill-rule="evenodd" clip-rule="evenodd" d="M11.4044 9.83606L14.1754 11.4751C14.5744 11.7111 14.5744 12.2891 14.1754 12.5251L11.4044 14.1641C10.9974 14.4051 10.4844 14.1111 10.4844 13.6391V10.3611C10.4844 9.88806 10.9984 9.59506 11.4044 9.83606V9.83606Z" stroke="#2CC420" stroke-width="1.5" stroke-linecap="round" stroke-linejoin="round"/>
</g>
</g>
</svg>
