<svg width="33" height="32" viewBox="0 0 33 32" fill="none" xmlns="http://www.w3.org/2000/svg">
<g id="Group">
<g id="Group_2">
<path id="Vector" fill-rule="evenodd" clip-rule="evenodd" d="M25.7428 8.00004V24C25.7428 25.4734 24.5495 26.6667 23.0761 26.6667H9.42546C7.95212 26.6667 6.75879 25.4734 6.75879 24V8.00004C6.75879 6.52671 7.95212 5.33337 9.42546 5.33337H23.0775C24.5495 5.33337 25.7428 6.52671 25.7428 8.00004Z" stroke="#565656" stroke-width="1.5996" stroke-linecap="round" stroke-linejoin="round"/>
<path id="Vector_2" d="M25.7422 8H27.8782C28.9822 8 29.8782 8.896 29.8782 10V22C29.8782 23.104 28.9822 24 27.8782 24H25.7422" stroke="#565656" stroke-width="1.4685" stroke-linecap="round" stroke-linejoin="round"/>
<path id="Vector_3" d="M6.75843 24H4.62109C3.51709 24 2.62109 23.104 2.62109 22V10C2.62109 8.896 3.51709 8 4.62109 8H6.75709" stroke="#565656" stroke-width="1.4685" stroke-linecap="round" stroke-linejoin="round"/>
<path id="Vector_4" fill-rule="evenodd" clip-rule="evenodd" d="M15.4562 13.1147L19.1508 15.3C19.6828 15.6147 19.6828 16.3853 19.1508 16.7L15.4562 18.8853C14.9135 19.2067 14.2295 18.8147 14.2295 18.1853V13.8147C14.2295 13.184 14.9148 12.7933 15.4562 13.1147V13.1147Z" stroke="#565656" stroke-width="1.5" stroke-linecap="round" stroke-linejoin="round"/>
</g>
</g>
</svg>
