<svg width="24" height="24" viewBox="0 0 24 24" fill="none" xmlns="http://www.w3.org/2000/svg">
<g id="Group">
<path id="Vector" d="M3 19C3 20.1046 3.89543 21 5 21" stroke="#2CC420" stroke-width="1.5" stroke-linecap="round" stroke-linejoin="round"/>
<path id="Vector_2" d="M13 9C14.1046 9 15 9.89543 15 11" stroke="#2CC420" stroke-width="1.5" stroke-linecap="round" stroke-linejoin="round"/>
<path id="Vector_3" d="M10 21H8" stroke="#2CC420" stroke-width="1.5" stroke-linecap="round" stroke-linejoin="round"/>
<path id="Vector_4" d="M10 9H8" stroke="#2CC420" stroke-width="1.5" stroke-linecap="round" stroke-linejoin="round"/>
<path id="Vector_5" d="M13 21C14.1046 21 15 20.1046 15 19" stroke="#2CC420" stroke-width="1.5" stroke-linecap="round" stroke-linejoin="round"/>
<path id="Vector_6" d="M3 11C3 9.89543 3.89543 9 5 9" stroke="#2CC420" stroke-width="1.5" stroke-linecap="round" stroke-linejoin="round"/>
<path id="Vector_7" d="M15 14V16" stroke="#2CC420" stroke-width="1.5" stroke-linecap="round" stroke-linejoin="round"/>
<path id="Vector_8" d="M3 14V16" stroke="#2CC420" stroke-width="1.5" stroke-linecap="round" stroke-linejoin="round"/>
<path id="Vector_9" d="M9 6V5C8.99985 4.46952 9.21052 3.96073 9.58563 3.58563C9.96073 3.21052 10.4695 2.99985 11 3H19C19.5305 2.99985 20.0393 3.21052 20.4144 3.58563C20.7895 3.96073 21.0001 4.46952 21 5V13C21.0001 13.5305 20.7895 14.0393 20.4144 14.4144C20.0393 14.7895 19.5305 15.0001 19 15H18" stroke="#2CC420" stroke-width="1.5" stroke-linecap="round" stroke-linejoin="round"/>
<path id="Vector_10" d="M9 13V17" stroke="#2CC420" stroke-width="1.5" stroke-linecap="round" stroke-linejoin="round"/>
<path id="Vector_11" d="M7 15H11" stroke="#2CC420" stroke-width="1.5" stroke-linecap="round" stroke-linejoin="round"/>
</g>
</svg>
