<svg width="20" height="20" viewBox="0 0 20 20" fill="none" xmlns="http://www.w3.org/2000/svg">
<g id="Group">
<g id="Group_2">
<path id="Vector" fill-rule="evenodd" clip-rule="evenodd" d="M2.9125 11.2209L3.90833 12.5242L4.12333 14.1467C4.2425 15.0467 4.95 15.755 5.85 15.875L7.47667 16.0925L8.77917 17.0875C9.5 17.6384 10.4992 17.6384 11.22 17.0875L12.5233 16.0917H12.5217L14.145 15.8767C15.045 15.7575 15.7533 15.05 15.8733 14.15L16.09 12.5234C16.09 12.5242 16.5933 11.865 17.0858 11.2209C17.6367 10.5 17.6358 9.50087 17.0858 8.78004L16.0917 7.47587L15.8767 5.85337C15.7575 4.95337 15.05 4.24504 14.15 4.12504L12.5225 3.90837L11.22 2.91337C10.4992 2.36254 9.5 2.36254 8.77917 2.91337L7.47583 3.90837H7.4775L5.85417 4.1242C4.95417 4.24337 4.24583 4.95087 4.12583 5.85087L3.90833 7.47754C3.90833 7.4767 3.405 8.13587 2.9125 8.78004C2.3625 9.50004 2.3625 10.5 2.9125 11.2209Z" fill="#2CC420"/>
<path id="Vector_2" d="M12.336 8.83496L9.41852 11.7525L7.66602 10.0016" stroke="black" stroke-width="1.5" stroke-linecap="round" stroke-linejoin="round"/>
</g>
</g>
</svg>
