<?xml version="1.0" encoding="UTF-8"?>
<svg xmlns="http://www.w3.org/2000/svg" xmlns:xlink="http://www.w3.org/1999/xlink" width="24px" height="26px" viewBox="0 0 24 25" version="1.1">
<g id="surface1">
<path style=" stroke:none;fill-rule:nonzero;fill:rgb(100%,100%,100%);fill-opacity:1;" d="M 23.167969 0.00390625 C 21.382812 2.058594 15.035156 2.277344 15.035156 2.277344 C 7.746094 2.828125 4.695312 5.511719 3.980469 6.25 C 3.824219 6.414062 3.65625 6.566406 3.488281 6.71875 C 1.472656 8.5 0.0625 10.992188 0.0117188 13.765625 L 0 13.765625 C 0 15.007812 0.191406 16.148438 0.574219 17.1875 C 0.960938 18.226562 1.519531 19.113281 2.25 19.855469 C 2.980469 20.59375 3.863281 21.167969 4.898438 21.578125 C 5.933594 21.988281 7.101562 22.144531 8.398438 22.191406 C 11.242188 22.292969 12.195312 20.96875 13.105469 19.632812 C 13.847656 18.539062 14.511719 17.308594 14.882812 15.628906 C 14.855469 16.003906 14.828125 16.402344 14.792969 16.832031 C 14.742188 17.5625 14.699219 18.28125 14.671875 18.988281 C 14.644531 19.621094 14.632812 20.195312 14.628906 20.710938 C 15.15625 20.386719 15.9375 19.78125 16.769531 18.710938 L 16.769531 12.949219 L 8.894531 12.949219 L 8.894531 14.863281 L 13.671875 14.863281 C 13.5 15.746094 13.128906 16.367188 12.789062 17.125 C 12.457031 17.871094 11.460938 20.382812 8.398438 20.273438 C 7.117188 20.226562 6.011719 20 5.078125 19.457031 C 4.144531 18.910156 3.421875 18.152344 2.933594 17.167969 C 2.476562 16.238281 2.332031 15.074219 2.214844 13.953125 C 2.222656 11.492188 3.375 9.28125 5.203125 7.761719 C 5.203125 7.761719 6.558594 6.546875 7.839844 5.960938 C 9.222656 5.332031 9.976562 4.871094 12.027344 4.515625 C 12.742188 4.394531 13.464844 4.316406 14.191406 4.265625 C 15.640625 4.167969 19.277344 3.839844 21.449219 2.878906 C 23.402344 21.601562 15.441406 24.535156 15.441406 24.535156 C 19.199219 23.488281 21.148438 22.824219 22.523438 18.609375 C 25.085938 12.394531 23.167969 0 23.167969 0 Z M 23.167969 0.00390625 "/>
</g>
</svg>
