<svg width="48" height="48" viewBox="0 0 48 48" fill="none" xmlns="http://www.w3.org/2000/svg">
<rect width="48" height="48" rx="24" fill="#565656"/>
<path d="M32.8928 28.9425C31.7536 32.4252 30.1441 32.9749 27.0399 33.8407C27.0399 33.8407 33.6192 31.8464 32.0044 16.3688C29.726 17.3757 25.4931 17.5459 25.4931 17.5459C21.5371 17.9545 19.7186 18.5479 18.3285 19.1803C17.2676 19.6667 16.1493 20.6687 16.1493 20.6687C14.6338 21.9285 13.6775 23.7623 13.6775 25.8052C13.6775 29.6089 16.9907 32.4058 21.072 32.4058C22.2583 32.4058 22.6502 32.2453 23.3766 31.9972C24.0508 31.7686 24.5054 31.5108 24.5002 30.3629L24.5159 26.2332H20.215V24.7059L26.2299 24.6913V31.073C26.2299 31.9145 25.7282 32.6879 24.9287 33.077C23.7842 33.6315 22.4882 33.9574 21.1191 33.9964C16.1127 34.1325 12.0052 30.4358 12 25.776C11.9948 23.305 13.1549 21.0919 14.9996 19.5791C14.9996 19.5791 17.9731 16.3007 26.7055 15.8775C26.7055 15.8775 31.9522 15.6976 33.4311 14C33.4311 14 35.0145 23.8158 32.8981 28.9523" fill="white"/>
</svg>
