<svg width="48" height="48" viewBox="0 0 48 48" fill="none" xmlns="http://www.w3.org/2000/svg">
<rect width="48" height="48" rx="24" fill="white"/>
<g clip-path="url(#clip0_4724_29106)">
<path d="M26.7248 38H11.5468C10.694 38 10 36.9745 10 35.7143V26.6973C10 25.4371 10.694 24.4116 11.5468 24.4116H26.7248C27.5776 24.4116 28.2716 25.4371 28.2716 26.6973V35.7143C28.2716 36.9745 27.5776 38 26.7248 38ZM11.5468 25.9439C11.2648 25.9439 11.0358 26.2823 11.0358 26.699V35.716C11.0358 36.1327 11.2648 36.4711 11.5468 36.4711H26.7248C27.0068 36.4711 27.2358 36.1327 27.2358 35.716V26.699C27.2358 26.2823 27.0068 25.9439 26.7248 25.9439H11.5468Z" fill="black"/>
<path d="M27.3536 25.1786H26.3178V22.4779H11.8522V24.8776H10.8164V20.9473H27.3536V25.1786Z" fill="black"/>
<path d="M25.2152 21.9201C24.9608 20.5952 24.2829 19.3503 23.4854 18.7483C23.0319 18.4048 22.5946 18.318 22.2551 18.5C22.0905 18.5884 21.8925 18.75 21.6831 18.9235C20.8533 19.6037 19.5988 20.6344 17.9185 19.0323C17.5065 18.6395 17.106 18.1871 16.7193 17.7483C16.2198 17.182 15.6524 16.5408 15.3727 16.4405C14.5763 16.1531 13.9951 16.2738 13.5946 16.8061C12.7912 17.8759 12.8338 20.4711 12.9178 21.381L11.8912 21.5901C11.8751 21.4235 11.5253 17.5051 12.8983 15.6718C13.5635 14.784 14.4785 14.5425 15.6178 14.9524C16.1093 15.1293 16.6836 15.7789 17.3488 16.5323C17.7194 16.9524 18.1026 17.3861 18.4801 17.7449C19.6391 18.8486 20.3872 18.2347 21.1801 17.5833C21.4264 17.381 21.6589 17.1905 21.9006 17.0595C22.514 16.7296 23.2448 16.8452 23.9572 17.3844C25.0138 18.1837 25.8781 19.7619 26.2107 21.5017L25.214 21.9184L25.2152 21.9201Z" fill="black"/>
<path d="M32.9234 37.5119L23.5332 13.4779L27.6097 10L36.9998 34.034L32.9234 37.5119ZM24.9477 14.0374L33.302 35.4201L35.5842 33.4728L27.231 12.0901L24.9488 14.0374H24.9477Z" fill="black"/>
<path d="M13.243 27.5085H12.3223V35.3248H13.243V27.5085Z" fill="black"/>
</g>
<defs>
<clipPath id="clip0_4724_29106">
<rect width="27" height="28" fill="white" transform="translate(10 10)"/>
</clipPath>
</defs>
</svg>
