<svg width="48" height="48" viewBox="0 0 48 48" fill="none" xmlns="http://www.w3.org/2000/svg">
<rect width="48" height="48" rx="24" fill="white"/>
<g clip-path="url(#clip0_4724_29154)">
<path d="M27.0188 39H19.9812C18.3374 39 17 37.9233 17 36.6V22.9589C17 21.6356 18.3374 20.5589 19.9812 20.5589H27.0188C28.6626 20.5589 30 21.6356 30 22.9589V36.6C30 37.9233 28.6626 39 27.0188 39ZM19.9812 21.7918C19.1814 21.7918 18.5314 22.3151 18.5314 22.9589V36.6C18.5314 37.2438 19.1814 37.7671 19.9812 37.7671H27.0188C27.8186 37.7671 28.4686 37.2438 28.4686 36.6V22.9589C28.4686 22.3151 27.8186 21.7918 27.0188 21.7918H19.9812Z" fill="black"/>
<path d="M28.3261 21.7918H18.6748V17.9466C18.6748 17.2795 19.3503 16.7356 20.179 16.7356H26.8219C27.6506 16.7356 28.3261 17.2795 28.3261 17.9466V21.7918ZM20.2062 20.5589H26.7947V17.9685H20.2062V20.5589Z" fill="black"/>
<path d="M26.4109 18.0027H20.5898V11.0849C20.5898 9.93562 21.752 9 23.1796 9H23.8194C25.247 9 26.4092 9.93562 26.4092 11.0849V18.0027H26.4109ZM22.1213 16.7699H24.8795V11.0849C24.8795 10.6151 24.4048 10.2329 23.8211 10.2329H23.1813C22.5977 10.2329 22.123 10.6151 22.123 11.0849V16.7699H22.1213Z" fill="black"/>
<path d="M21.288 23.537H19.9268V36.2849H21.288V23.537Z" fill="black"/>
</g>
<defs>
<clipPath id="clip0_4724_29154">
<rect width="13" height="30" fill="white" transform="translate(17 9)"/>
</clipPath>
</defs>
</svg>
