<svg width="48" height="48" viewBox="0 0 48 48" fill="none" xmlns="http://www.w3.org/2000/svg">
<rect width="48" height="48" rx="24" fill="white"/>
<g clip-path="url(#clip0_4724_29163)">
<path d="M26.4868 30.2493H20.7882V28.8716H26.4694C26.9817 28.8475 27.3605 28.6633 27.5926 28.3223C27.9448 27.8039 27.8941 27.0445 27.8928 27.0359L27.8901 26.9653C27.8901 26.9498 27.8901 26.9222 27.8394 26.8637C27.2618 26.1851 24.746 26.1541 23.1439 26.3505L22.9558 26.3728L22.7984 26.2368C22.7984 26.2368 21.9674 25.5996 19.6223 25.5152C17.2505 25.436 15.287 27.227 15.2669 27.2442L15.2189 27.289L15.1629 27.32L11.4172 29.3659L11.001 28.0967L14.6947 26.0801C15.0548 25.7598 17.1118 24.048 19.6516 24.1375C21.7646 24.2133 22.8118 24.711 23.2066 24.959C24.2004 24.8505 27.4979 24.5973 28.5584 25.8442C28.8119 26.1421 28.9493 26.5158 28.9573 26.9274C28.9746 27.1805 29.0106 28.3137 28.405 29.2161C27.9688 29.867 27.3272 30.2132 26.4975 30.2493H26.4881H26.4868Z" fill="black"/>
<path d="M12.6214 37L12.2412 35.7136L17.8838 32.9341L18.0559 32.9995C18.1039 33.0185 22.9101 34.837 24.3415 34.9248C25.1685 34.9731 29.2437 31.7234 32.6987 28.5496L35.9041 25.7046C35.8628 25.4394 35.7601 25.0726 35.5026 24.8573C34.997 24.4354 33.9953 24.6455 32.684 25.448L28.5167 28.138L28.0392 26.9049L32.2171 24.2081C33.9419 23.1542 35.2425 22.9871 36.0949 23.7087C37.0287 24.4991 37.0006 26.0008 36.9993 26.0628L36.99 26.4107L33.3109 29.6758C33.3003 29.6862 31.4901 31.3463 29.5172 32.9737C25.406 36.3663 24.5962 36.318 24.2921 36.2974C22.8808 36.2113 18.8323 34.7199 17.9292 34.3824L12.6227 36.9966L12.6214 37Z" fill="black"/>
<path d="M20.7338 18.3236C19.704 18.3236 18.8556 17.9361 18.2073 17.1646C16.8307 15.5286 16.9214 12.7939 16.9254 12.6768L16.9454 12.1533L17.3989 12.0276C17.4883 12.0138 19.6106 11.7193 20.9619 13.3932C21.757 14.3765 22.1078 15.7973 22.0037 17.6158L21.9877 17.9069L21.6956 18.222L21.5422 18.2496C21.2607 18.2978 20.9913 18.3236 20.7325 18.3236H20.7338ZM18.0112 13.3811C18.0673 14.1268 18.2633 15.3633 18.933 16.1555C19.4185 16.7289 20.0962 16.9924 20.9553 16.9373C20.9446 15.8334 20.7005 14.9793 20.2283 14.392C19.5706 13.574 18.5942 13.4035 18.0112 13.3794V13.3811Z" fill="black"/>
<path d="M23.2502 21.7282C22.8073 21.7282 22.3351 21.6404 21.8322 21.463L21.6014 21.3821L21.4307 20.9412L21.4387 20.7553C21.5214 18.9315 22.0149 17.5797 22.9033 16.7358C24.4107 15.3047 26.473 15.9437 26.561 15.9729L26.9439 16.0952L26.9679 16.648L26.9652 16.6962C26.9585 16.8116 26.7758 19.5567 25.2431 20.9499C24.6748 21.4665 24.0079 21.7248 23.2502 21.7248V21.7282ZM22.5498 20.2627C23.3929 20.4608 24.0906 20.3144 24.6281 19.8253C25.3671 19.1537 25.686 17.9482 25.8167 17.2146C25.2391 17.1422 24.2626 17.1543 23.5316 17.85C23.0021 18.3546 22.6726 19.1657 22.5485 20.261L22.5498 20.2627Z" fill="black"/>
<path d="M22.0095 17.6503H20.9424V25.3154H22.0095V17.6503Z" fill="black"/>
</g>
<defs>
<clipPath id="clip0_4724_29163">
<rect width="26" height="25" fill="white" transform="translate(11 12)"/>
</clipPath>
</defs>
</svg>
