<svg width="48" height="48" viewBox="0 0 48 48" fill="none" xmlns="http://www.w3.org/2000/svg">
<rect width="48" height="48" rx="24" fill="white"/>
<g clip-path="url(#clip0_4724_29178)">
<path d="M16.715 37C16.3472 37 16.0485 36.9254 15.9838 36.9093L15.7852 36.8566L11.5421 31.8969C10.9595 30.9998 10.8462 30.2373 11.2037 29.63C11.7996 28.6216 13.3826 28.6699 13.6931 28.6904L13.8593 28.7007C14.2212 28.0231 14.5228 27.2445 14.7597 26.3737C14.9878 25.5396 15.0393 24.6132 14.9127 23.621C14.8259 22.9361 14.8171 22.238 14.8862 21.5443C15.0996 19.3945 16.0824 17.3749 17.6537 15.8573C19.225 14.3382 21.2833 13.4206 23.4489 13.2698C26.0531 13.0898 28.5321 13.9621 30.4315 15.7241C32.3044 17.4627 33.3784 19.9198 33.3784 22.4663C33.3784 27.5504 29.2207 31.6861 24.1095 31.6861H24.1066C23.4489 31.6861 22.8222 31.8149 22.2322 32.071C20.2019 32.9506 18.8895 33.7731 18.0774 34.3819C18.3157 34.9702 18.5379 35.8468 18.0244 36.4717C17.6757 36.8961 17.1461 36.9985 16.7121 36.9985L16.715 37ZM16.5105 35.6712C16.7327 35.699 16.9504 35.6814 17.0063 35.6346C17.0063 35.6346 17.1152 35.3697 16.6709 34.4799L16.4384 34.0145L16.8401 33.6809C18.0288 32.6959 19.6663 31.7476 21.707 30.8637C22.4647 30.5359 23.2695 30.369 24.0992 30.369H24.1022C28.4924 30.369 32.0558 26.8245 32.0558 22.4663C32.0558 20.2828 31.1348 18.1769 29.5296 16.687C27.9024 15.1767 25.7765 14.4304 23.5431 14.584C19.7355 14.8475 16.5826 17.8944 16.2074 21.6731C16.1486 22.2687 16.1559 22.8687 16.2295 23.4556C16.3766 24.619 16.3134 25.7167 16.0397 26.7177C15.6763 28.0509 15.1687 29.2056 14.5317 30.1495L14.0123 30.9178L13.3194 30.0032C12.8927 30.0236 12.441 30.1349 12.3454 30.2958C12.2998 30.3734 12.3101 30.6398 12.6308 31.1447L16.509 35.6682L16.5105 35.6712Z" fill="black"/>
<path d="M24.3171 17.732C23.8036 17.6368 23.4932 17.6251 23.0857 17.6881L22.9268 16.6753C23.4505 16.5934 23.8787 16.6066 24.5069 16.7236L24.3171 17.7305V17.732Z" fill="black"/>
<path d="M18.6263 26.0225L17.6494 25.6991C17.6568 25.6786 18.3497 23.58 18.2512 21.7272C18.1673 20.1467 19.4532 17.89 21.6748 16.9973L22.0602 17.9471C20.3418 18.6364 19.2163 20.4643 19.2796 21.6731C19.3884 23.7219 18.6572 25.9289 18.6263 26.0225Z" fill="black"/>
<path d="M12.8646 20.2945L11.542 20.2213C11.5582 19.9184 12.0216 12.7957 18.1053 11L18.4819 12.263C13.3001 13.7923 12.8676 20.2301 12.8646 20.2945Z" fill="black"/>
<path d="M31.9038 33.0106L31.3359 31.8208C36.2367 29.51 35.6526 23.0912 35.6452 23.0268L36.9635 22.8965C36.9944 23.198 37.6373 30.3076 31.9038 33.012V33.0106Z" fill="black"/>
</g>
<defs>
<clipPath id="clip0_4724_29178">
<rect width="26" height="26" fill="white" transform="translate(11 11)"/>
</clipPath>
</defs>
</svg>
